<svg xmlns="http://www.w3.org/2000/svg" viewBox="0 0 640 480"><defs><style>.cls-1{isolation:isolate;}.cls-2{fill:#efefef;}.cls-3{font-size:150px;font-family:FrederickatheGreat-Regular, Fredericka the Great;}.cls-4{fill:#465050;}.cls-5{fill:#fffae1;}.cls-6{fill:#503200;}.cls-10,.cls-12,.cls-18,.cls-6,.cls-9{opacity:0.3;}.cls-10,.cls-12,.cls-14,.cls-6,.cls-9{mix-blend-mode:multiply;}.cls-7,.cls-8,.cls-9{fill:#dc8c14;}.cls-8{opacity:0.15;mix-blend-mode:screen;}.cls-10{fill:#b48c14;}.cls-11{fill:#f0e6b4;}.cls-12,.cls-14,.cls-16{fill:#e6dcb4;}.cls-13{fill:#dcd2af;}.cls-14{opacity:0.2;}.cls-15{fill:#fffcf0;}.cls-17{fill:#644614;}.cls-18{fill:#7c6d6d;}</style></defs><title>404</title><g class="cls-1"><g id="Layer_1" data-name="Layer 1"><rect class="cls-2" width="640" height="480"/><text class="cls-3" transform="translate(208.72 163.8)">404</text><path class="cls-4" d="M130.81,385c73.65-64.5,282.64-77.5,377.19.53C430.78,479.92,189.22,451.52,130.81,385Z"/><path class="cls-5" d="M401.74,303.14c5.5-6.24,27.87-9.48,27.89,19.74,0,15.9-8.57,28.73-17.33,32.58-4.58,2-10.09,3.4-19,1.54l4.57-7.24s7.71,1.3,10.94-.43,10.89-8.07,13.09-16.34c1.58-5.95.43-16.28-5.17-20.16s-9.31-2.37-14.78,4.09Z"/><path class="cls-6" d="M429.87,401c-21.63,19.9-88.2,29.12-169.92,7.63-6.16,7.39-21.32,19-49.22,7.3-22.4-9.37-21.39-25-21.39-25s-27.34,7.1-36.09-12.27c8.76-37.14,83-31.58,83-31.58l105.43,13.63S419.73,387.33,429.87,401Z"/><path class="cls-7" d="M306.61,330.63s-34.66,7.8-59.41,14.8c-7.66,2.17-14.37,4.26-18.81,6a143.8,143.8,0,0,0-41.2,25.11,19.18,19.18,0,0,1,1.75,2.21c.92,1.35,1.78,3.05,1.41,4.25-6.34,7.89-18.62,3.75-24.64-2.1l-.34-.34c-4.45-4.56-5.86-12.32-5.54-18.44a23.79,23.79,0,0,1,.8-5.24,46.77,46.77,0,0,1-.42-12.47c.11-.83.24-1.66.42-2.46a31,31,0,0,1,3.82-9v0a59,59,0,0,1,16.39-17.14,23.23,23.23,0,0,1,5.06-2.71,24,24,0,0,1,8.47-10.91c21.65-14.55,52-9.76,54.83-9.48s7.46,3.42,7.46,3.42c14.3,1,27.72,6.53,35.88,10.34,2.25,1.05,4.1,2,5.46,2.62,6.32,3,7.92,12.14,7.92,12.14Z"/><path class="cls-8" d="M240.73,325.75l-33.3,12.59c-19.38-21.85-41.48-4.7-47.22,6.09.11-.83.24-1.66.42-2.46a31,31,0,0,1,3.82-9v0a59,59,0,0,1,16.39-17.14h0C204.52,307.47,237.72,314.84,240.73,325.75Z"/><path class="cls-9" d="M256.66,296.15c4.49,3,15.58,8.82,22.9,22.06s2.8,0,2.8,0-3.5-13.33-21.4-21.63Z"/><path class="cls-9" d="M233.2,333.5a64.8,64.8,0,0,0-27.15,9.4c-3-5-8.86-11.7-18.72-11.7a27.44,27.44,0,0,0-27,23.25l.34,2.45c4.89-12.42,13.64-20.75,27.14-20.67,7.63,0,13.08,4.44,16.25,8a62.58,62.58,0,0,0-20.92,24.38c-2.61-2.22-6-3.63-9.83-1.53-8.61,4.74-5.42,15.64-5.42,15.64l1.53,1c-.85-5.49-1.24-11,5.65-13.88s10.52,4.6,12.16,6.66l1.19-1.06a146.69,146.69,0,0,1,40-24.05c4.44-1.76,11.15-3.85,18.81-6C250.64,339.5,248.44,331.68,233.2,333.5Z"/><path class="cls-10" d="M193.65,365.37c-3.18,2.31-6.55,5.39-7.9,9.13.59.84,1.07,1.59,1.44,2.06l1.19-1.06a146.69,146.69,0,0,1,40-24.05c4.44-1.76,11.15-3.85,18.81-6a9.18,9.18,0,0,0,1.32-5.91C229.11,344.67,210.55,352.76,193.65,365.37Z"/><path class="cls-9" d="M185.9,313.12c14.06-5.24,40-6.95,54.92,6.16s5-2.47,5-2.47S233,304.65,214,304.86s-27.22,6.26-27.22,6.26Z"/><path class="cls-7" d="M323.55,359.77c-4.16.38-9.65.51-16.19,1.44-13.8,2-32.33,7.43-53.23,26.11h0c-2.26,2-5.36,4.5-7.9,7.14s-4.43,5.3-4.6,8a2.11,2.11,0,0,0,0,.25,15.82,15.82,0,0,1,2.5,3.41,7.6,7.6,0,0,1,.89,5.79,5.36,5.36,0,0,1-.75,1.54c-3.72,3.38-19.93,4.74-31.59-4.76h0a30.61,30.61,0,0,1-8.24-10.56,65.16,65.16,0,0,1-.85-10.79,53.53,53.53,0,0,1,2.13-15.58q.41-1.29.9-2.55s-1.54-10.05-.9-12.85c.25-1.05,3.21-6.06,8.06-12.29h0c7.13-9.16,18.37-21,31.11-26.81h0a47.05,47.05,0,0,1,4.54-1.8h1.11a52.81,52.81,0,0,1,6.88.44c6.67-2.1,23.79-.09,36.46,2.42,7.22,1.42,13,3,14.57,4.09C312.79,325.32,330.73,340.53,323.55,359.77Z"/><path class="cls-9" d="M303.89,351.45c-15.05.42-31.7,5.88-48.67,16.52-3.56-8.53-11.44-16-20.55-16.06-12.06-.11-22.72,5.81-28.33,15.43l.26,1.83c7.5-8.43,17.3-13.17,29.36-11.77a20.86,20.86,0,0,1,16.62,12.27c-11.8,7.95-15.55,18.43-16.74,24.12h0c-17.24.28-21,9.76-20.46,16.83l1.69,1c3.48-14.87,14.62-13.12,20.58-12.17,1,.81,2.23,1.84,3.84,3l.14-.08c.17-2.66,2.13-5.39,4.6-8s5.64-5.11,7.9-7.14h0c20.9-18.68,39.43-24.16,53.23-26.11l4.14-2.59S319.53,351,303.89,351.45Z"/><path class="cls-10" d="M312.56,352.9a189.72,189.72,0,0,0-45.7,18.93c-11.13,6.13-27.72,16.37-25.73,30.4l.36.27.14-.08c.17-2.66,2.13-5.39,4.6-8s5.64-5.11,7.9-7.14h0c20.9-18.68,39.43-24.16,53.23-26.11l4.14-2.59S315.31,355,312.56,352.9Z"/><path class="cls-11" d="M297.56,401.88s16.81,8.56,20.4,9.28S363,416.47,376.52,410c9.29-5.4,11.75-9,11.75-9Z"/><path class="cls-5" d="M259,386.85c14.86-19.59,120.79-32.29,165.36-5C411.47,409.67,289.17,413.55,259,386.85Z"/><path class="cls-12" d="M340.81,398.09c-26.62,0-50.17-3.72-64.54-9.88a114.2,114.2,0,0,1,18.94-5.86,254.57,254.57,0,0,1,55-5.79c24.56,0,45.65,3.29,60.88,9.4a76.36,76.36,0,0,1-17.84,6.5C378.73,396.09,360.12,398.09,340.81,398.09Z"/><path class="cls-9" d="M257.4,315.84c7.62,1,26,7.43,34.75,22.5l5.06-3A56.92,56.92,0,0,0,265,315Z"/><path class="cls-13" d="M306.61,390.77c14.5-8.75,62.65-4.59,73.35-1.14C374,396,317.23,401,306.61,390.77Z"/><path class="cls-5" d="M401.35,343.41c-1.43,4-24.4,39.9-30.14,44.78s-28.71,7.46-48.23,4c-19.23-12.06-38.18-47.37-40.77-55.41s2-54.25,2-54.25c31.87-20.68,112.54-5.46,117.13,3.15C401.35,285.7,402.79,339.39,401.35,343.41Z"/><path class="cls-14" d="M306.47,321.87c-9.18-2.14-17.92-6.24-24.38-12.76-.72,11.83-1.08,23.93.12,27.69,2.59,8,21.54,43.35,40.77,55.41,19.52,3.44,42.49.86,48.23-4s28.71-40.77,30.14-44.78c.6-1.68.7-12,.61-23.49C371.57,329.56,338.33,329.76,306.47,321.87Z"/><path class="cls-12" d="M312.93,346.42c-16.27-20.25-12.79-47.07-9.45-71.38-7.37,1.65-14,4.09-19.26,7.51,0,0-4.59,46.21-2,54.25s21.54,43.35,40.77,55.41c19.52,3.44,42.49.86,48.23-4,2.41-2.05,7.88-9.59,13.5-17.93C358.35,374,330,367.66,312.93,346.42Z"/><path class="cls-15" d="M401.35,285.7c-12.34,25.55-112,12.34-117.13-3.15C316.09,261.87,396.76,277.09,401.35,285.7Z"/><path class="cls-16" d="M288.39,283.55c16.36-7,69.9-13.78,109.09,3.73C382.12,300.2,315.23,299.05,288.39,283.55Z"/><path class="cls-17" d="M303.72,289.81c24.49,7.23,60.07,8.26,80.62,3.17C356.18,284.5,324,285.91,303.72,289.81Z"/><path class="cls-8" d="M287.09,311.32c-8.82-3.65-25.83-6.88-35.35-6.46s-40.22,1.3-62.8,31.41-6.49,39,0,42.5c.92,1.35,1.78,3.05,1.41,4.25-31.51-4.95-27.92-39.4-25.9-50v0c5.81-9.62,16.06-18,21.45-19.85a24,24,0,0,1,8.47-10.91c21.65-14.55,52-9.76,54.83-9.48s7.46,3.42,7.46,3.42c14.3,1,27.72,6.53,35.88,10.34C292.7,310,291.77,313.26,287.09,311.32Z"/><path class="cls-8" d="M290.83,347.28a85.43,85.43,0,0,0-33.43,13.49c-17.63-25.41-42.94-12.2-51.7-4.45.25-1.05,3.21-6.06,8.06-12.29h0c7.13-9.16,18.37-21,31.11-26.81h0C283.9,322.16,290.83,347.28,290.83,347.28Z"/><path class="cls-8" d="M249,369.24c-11.11,6.17-15.16,21.25-15.16,21.25-16-.57-20.67,9.62-21.17,18.16h0a30.61,30.61,0,0,1-8.24-10.56,65.16,65.16,0,0,1-.85-10.79,53.53,53.53,0,0,1,2.13-15.58h0C230.39,350.08,249,369.24,249,369.24Z"/><path class="cls-8" d="M293.86,318.26,293,326,281.43,326c-7.81,2.09-30.24,1.56-47.59,25.95s-12.48,47.5,10.27,54.16a7.6,7.6,0,0,1,.89,5.79c-1.74-.22-3.58-.5-5.42-.86-13.49-2.58-27.42-15.07-28.28-17.22s-4.41-25.6,2.46-49.76h0c8-10.24,21.07-23.79,35.65-28.61h1.11a52.81,52.81,0,0,1,6.88.44C264.07,313.74,281.19,315.75,293.86,318.26Z"/><path class="cls-8" d="M199.46,344.43c-8.29,3.5-17,19.75-17,19.75-15.39-1.18-18,7-16.74,16.74h0l-.34-.34c-4.45-4.56-5.86-12.32-5.54-18.44C171.83,334.26,192.58,339.64,199.46,344.43Z"/><path class="cls-18" d="M327.14,175.46c10.12,1.72,18.52,8.43,17.88,14.64-1,9.48-38.23,19.16-41.3,47.37s11.57,47.66,39.07,52.75c-13.06-9-31.64-32.42-2.3-51.67,20-13.14,42.63-17.65,40.7-35.53S355.78,169.22,327.14,175.46Z"/><path class="cls-18" d="M389.87,205.6c1.15,13.36-3.59,20.82-22.25,30s-31,16.5-30.14,30.28,11.48,24.89,19.95,25.87c-4.59-6.35-12.2-31.46,19.66-48.12S389.87,205.6,389.87,205.6Z"/><path class="cls-15" d="M209.26,212.35c1,1.89-.48,5.28-.42,5.3l-52.42,0c-1-1.1,1.48-8.85,4.7-3.84-1.83-2.84,1.95-12,7.68-2.94-6.63-23.73,21.39-21.76,18-1.88-1.2-3.93,4.57-5.81,7.51-5.25,3.11.58,3.7,5.08,1.89,7.57C196.5,207.88,206.27,206.94,209.26,212.35Z"/><path class="cls-15" d="M475.5,272.5c2.73,7,.74,6.12-6,6-19.94-.4-48.42.53-48.42.53-5.7-1.56,4.19-11.32,7.51-3.33-.55-2.74-1.52-6,1.32-8s5.67-.74,7.73,1.57c-3.3-18.25,21.14-24.86,24.49-10.08.81,3.56,1.36,8.81.25,12.36C462.43,266.58,472.59,265,475.5,272.5Z"/></g></g></svg>